<?xml version="1.0" standalone="no"?>
<!DOCTYPE svg PUBLIC "-//W3C//DTD SVG 20010904//EN"
 "http://www.w3.org/TR/2001/REC-SVG-20010904/DTD/svg10.dtd">
<svg version="1.0" xmlns="http://www.w3.org/2000/svg"
 width="200.000000pt" height="200.000000pt" viewBox="0 0 200.000000 200.000000"
 preserveAspectRatio="xMidYMid meet">
<metadata>
Created by potrace 1.14, written by Peter Selinger 2001-2017
</metadata>
<g transform="translate(0.000000,200.000000) scale(0.100000,-0.100000)"
fill="#000000" stroke="none">
<path d="M1170 1855 c-113 -23 -306 -63 -430 -89 -236 -48 -260 -58 -293 -114
-18 -30 -19 -71 -19 -737 l-1 -705 26 -38 c48 -74 34 -72 601 -72 564 0 542
-3 489 66 -40 53 -40 125 1 178 l28 37 0 670 c0 369 -2 673 -5 676 -3 3 -38 5
-76 4 -67 -1 -71 0 -72 22 -2 60 -6 133 -8 140 -2 11 -22 8 -241 -38z m200
-644 l0 -639 -57 -11 c-32 -5 -69 -13 -82 -15 -28 -6 -217 -46 -243 -51 -9 -2
-120 -25 -245 -50 -125 -26 -238 -53 -250 -61 l-23 -14 0 616 c0 606 0 617 21
650 24 39 43 45 315 98 10 2 123 25 249 52 308 63 299 62 308 63 4 0 7 -287 7
-638z m160 -161 l0 -640 -357 1 c-407 1 -406 -5 -13 74 129 26 240 52 246 56
8 7 12 167 12 567 0 306 1 563 1 570 1 8 19 12 56 12 l55 0 0 -640z m-30 -686
c0 0 -7 -16 -16 -34 -21 -41 -22 -108 -1 -149 8 -17 12 -32 9 -34 -4 -2 -218
-3 -477 -2 -391 1 -474 3 -493 15 -32 21 -55 75 -48 115 7 38 48 82 79 87 20
3 947 5 947 2z"/>
<path d="M584 329 c-3 -5 -3 -13 0 -17 3 -5 191 -8 418 -8 360 1 413 3 413 16
0 13 -53 15 -413 16 -231 1 -415 -2 -418 -7z"/>
<path d="M535 261 c-3 -5 0 -13 6 -17 14 -8 827 -9 835 -1 3 3 3 10 -1 16 -8
14 -831 15 -840 2z"/>
<path d="M584 201 c-2 -2 -4 -10 -4 -18 0 -11 77 -13 421 -13 395 0 420 1 417
18 -3 16 -31 17 -416 17 -227 0 -415 -2 -418 -4z"/>
</g>
</svg>
